<?xml version="1.0" encoding="utf-8"?>
<!-- Generator: Adobe Illustrator 23.0.3, SVG Export Plug-In . SVG Version: 6.00 Build 0)  -->
<svg version="1.1" id="Capa_1" xmlns="http://www.w3.org/2000/svg" xmlns:xlink="http://www.w3.org/1999/xlink" x="0px" y="0px"
	 viewBox="0 0 438.5 438.5" style="enable-background:new 0 0 438.5 438.5;" xml:space="preserve">
<style type="text/css">
	.st0{fill:#C5CAE9;}
</style>
<g>
	<path class="st0" d="M414.4,24.1C398.3,8,379,0,356.3,0H82.2c-22.6,0-42,8-58.1,24.1S0,59.6,0,82.2v274.1c0,22.6,8,42,24.1,58.1
		s35.5,24.1,58.1,24.1h274.1c22.6,0,42-8,58.1-24.1s24.1-35.5,24.1-58.1V82.2C438.5,59.6,430.5,40.2,414.4,24.1z M365.4,228.4
		c0,8-3.7,13.6-11.1,16.8c-2.5,1-4.9,1.4-7.1,1.4c-5.1,0-9.4-1.8-12.8-5.4l-41.1-41.1L140.8,352.6c-3.6,3.6-7.9,5.4-12.8,5.4
		c-5,0-9.2-1.8-12.9-5.4L86,323.5c-3.6-3.6-5.4-7.9-5.4-12.8s1.8-9.2,5.4-12.8l152.5-152.5l-41.1-41.1c-5.9-5.5-7.2-12.2-4-20
		c3.2-7.4,8.9-11.1,16.8-11.1h137c4.9,0,9.2,1.8,12.9,5.4c3.6,3.6,5.4,7.9,5.4,12.8L365.4,228.4L365.4,228.4z"/>
</g>
</svg>
